<?xml version="1.0" standalone="no"?>
<!DOCTYPE svg PUBLIC "-//W3C//DTD SVG 20010904//EN"
 "http://www.w3.org/TR/2001/REC-SVG-20010904/DTD/svg10.dtd">
<svg version="1.0" xmlns="http://www.w3.org/2000/svg"
 width="715.000000pt" height="122.000000pt" viewBox="0 0 715.000000 122.000000"
 preserveAspectRatio="xMidYMid meet">

<g transform="translate(0.000000,122.000000) scale(0.100000,-0.100000)"
fill="#000000" stroke="none">
<path d="M2026 828 c-6 -40 -46 -454 -46 -470 0 -5 20 -8 44 -8 l45 0 3 43 c3
41 4 42 41 45 l37 3 0 -45 0 -46 45 0 c54 0 52 -30 22 285 l-22 230 -82 3 -82
3 -5 -43z m98 -130 c4 -51 9 -112 12 -135 6 -43 6 -43 -26 -43 -25 0 -30 3
-26 18 2 9 8 70 11 135 4 64 10 117 15 117 4 0 10 -42 14 -92z"/>
<path d="M2280 610 l0 -260 45 0 45 0 0 105 0 105 34 0 c85 0 116 42 116 157
0 119 -39 153 -177 153 l-63 0 0 -260z m139 156 c7 -8 11 -36 9 -63 -3 -44 -5
-48 -30 -51 l-28 -3 0 65 c0 58 2 66 19 66 10 0 24 -6 30 -14z"/>
<path d="M2560 610 l0 -260 45 0 45 0 0 260 0 260 -45 0 -45 0 0 -260z"/>
<path d="M2780 862 c-55 -8 -98 -82 -85 -149 4 -25 26 -57 76 -109 62 -66 69
-77 69 -114 0 -28 -5 -43 -16 -47 -22 -8 -35 9 -41 56 -6 41 -6 41 -49 41 -43
0 -44 -1 -44 -32 0 -100 42 -148 126 -148 70 0 101 26 113 94 5 27 8 54 6 60
-2 6 -6 24 -10 39 -3 16 -37 62 -76 103 -75 79 -87 116 -41 122 18 3 23 -2 28
-27 6 -29 9 -31 50 -31 40 0 44 2 44 24 0 83 -60 130 -150 118z"/>
<path d="M2970 862 c0 -10 18 -116 25 -149 3 -14 13 -23 24 -23 21 0 26 15 36
113 l7 67 -46 0 c-25 0 -46 -4 -46 -8z"/>
<path d="M3911 859 c-18 -4 -45 -19 -60 -33 -26 -26 -26 -28 -29 -195 -4 -185
4 -225 52 -256 14 -9 45 -17 70 -17 96 0 118 38 124 209 6 155 -3 226 -31 259
-26 29 -78 43 -126 33z m57 -247 c2 -144 1 -163 -14 -169 -34 -13 -44 23 -44
165 0 137 9 176 38 170 15 -3 17 -23 20 -166z"/>
<path d="M4120 610 l0 -260 45 0 44 0 3 133 3 132 25 -130 25 -130 48 -3 47
-3 0 260 0 261 -45 0 -45 0 0 -127 c-1 -145 -9 -145 -35 2 -10 55 -20 106 -22
113 -3 7 -23 12 -49 12 l-44 0 0 -260z"/>
<path d="M4690 655 c0 -230 6 -261 51 -286 34 -18 109 -13 138 9 43 32 50 70
50 290 l1 202 -45 0 -45 0 0 -198 c0 -208 -7 -243 -44 -229 -14 6 -16 31 -16
217 l0 210 -45 0 -45 0 0 -215z"/>
<path d="M4980 610 l0 -260 95 0 95 0 0 40 0 40 -50 0 -50 0 0 220 0 220 -45
0 -45 0 0 -260z"/>
<path d="M5200 820 c0 -49 1 -50 30 -50 l30 0 0 -210 0 -210 45 0 45 0 0 210
0 210 30 0 c29 0 30 1 30 50 l0 50 -105 0 -105 0 0 -50z"/>
<path d="M3135 837 c-20 -16 -28 -35 -32 -69 -8 -70 1 -92 71 -166 66 -69 83
-104 71 -142 -5 -15 -13 -20 -28 -18 -19 3 -22 11 -25 51 l-3 47 -45 0 -44 0
0 -50 c0 -57 20 -104 50 -120 23 -12 97 -16 127 -6 33 10 55 53 60 115 7 72
-9 105 -89 187 -45 46 -59 67 -56 85 5 36 42 33 46 -3 3 -26 6 -28 53 -28 54
0 55 2 39 62 -15 54 -51 78 -116 78 -41 0 -59 -5 -79 -23z"/>
<path d="M3587 849 c-40 -23 -47 -60 -47 -238 0 -181 6 -209 47 -236 30 -20
93 -22 134 -5 42 18 59 57 59 135 l0 65 -45 0 -45 0 0 -48 c0 -55 -19 -88 -44
-79 -14 6 -16 27 -16 167 0 134 2 162 15 166 26 10 45 -16 45 -62 l0 -44 45 0
45 0 0 51 c0 62 -22 112 -56 128 -31 14 -113 14 -137 0z"/>
<path d="M4439 831 c-24 -25 -29 -37 -29 -81 0 -63 14 -91 79 -155 55 -53 77
-104 60 -137 -19 -36 -44 -17 -47 35 l-3 47 -51 0 -51 0 7 -37 c3 -21 6 -48 6
-61 0 -13 13 -37 29 -53 26 -26 36 -29 89 -29 55 0 63 3 86 30 14 17 28 49 32
76 10 72 -9 118 -76 183 -72 70 -88 97 -67 119 21 20 47 8 47 -23 0 -23 4 -25
45 -25 43 0 45 1 45 30 0 38 -24 86 -49 100 -11 5 -43 10 -71 10 -44 0 -56 -5
-81 -29z"/>
</g>
</svg>
